<svg width="262" height="214" viewBox="0 0 262 214" fill="none" xmlns="http://www.w3.org/2000/svg">
   <path
      d="M146.586 116H97.1884C96.4063 116 95.696 116.456 95.3702 117.167L53.3172 208.943C52.8528 209.957 54.145 210.855 54.9335 210.067L147.293 117.707C147.923 117.077 147.477 116 146.586 116Z"
      fill="#EFC942" />
   <path
      d="M71.6171 52.3C71.8052 52.1081 72.0626 52 72.3312 52H134.879C135.768 52 136.215 53.0732 135.589 53.7043L127.418 61.9407C126.792 62.5718 127.239 63.645 128.128 63.645H195.43C196.323 63.645 196.768 64.7259 196.135 65.3547L161.521 99.7098C161.334 99.8957 161.081 100 160.817 100H27.238C26.3519 100 25.9036 98.9328 26.5239 98.3L71.6171 52.3Z"
      fill="#EFC942" />
   <path
      d="M36.469 0.285542C36.6559 0.102509 36.9071 0 37.1687 0H259.55C260.446 0 260.889 1.08758 260.249 1.71446L225.531 35.7145C225.344 35.8975 225.093 36 224.831 36H2.45036C1.55441 36 1.11056 34.9124 1.75068 34.2855L36.469 0.285542Z"
      fill="#EFC942" />
</svg>