<svg width="378" height="378" viewBox="0 0 378 378" fill="none" xmlns="http://www.w3.org/2000/svg">
  <path
    d="M206.274 216.247H156.728C155.949 216.247 155.241 216.699 154.914 217.406L112.739 308.389C112.271 309.4 113.557 310.304 114.35 309.521L206.977 217.958C207.612 217.33 207.167 216.247 206.274 216.247Z"
    fill="#EFC942" />
  <path
    d="M130.736 153.269C130.924 153.08 131.179 152.974 131.445 152.974H194.138C195.03 152.974 195.475 154.054 194.843 154.683L186.7 162.777C186.067 163.406 186.513 164.486 187.405 164.486H254.841C255.737 164.486 256.181 165.574 255.541 166.201L220.863 200.143C220.676 200.326 220.425 200.428 220.164 200.428H86.2615C85.372 200.428 84.9252 199.354 85.5523 198.723L130.736 153.269Z"
    fill="#EFC942" />
  <path
    d="M95.4687 101.287C95.6557 101.103 95.9076 101 96.1699 101H317.557C318.452 101 318.896 102.085 318.258 102.713L283.531 136.869C283.344 137.053 283.092 137.156 282.83 137.156H61.4428C60.5479 137.156 60.1036 136.07 60.7416 135.443L95.4687 101.287Z"
    fill="#EFC942" />
</svg>