<svg xmlns="http://www.w3.org/2000/svg" width="32" height="30" viewBox="0 0 32 30" fill="none">
  <path
    d="M-0.00878906 0.687509V6.52328C1.31 5.82482 2.61868 5.90987 3.91723 5.76747V0C2.49281 0 1.31 0.0122425 -0.00878906 0.687509Z"
    fill="#E36E1B" />
  <path
    d="M11.5015 1.33319C10.2618 0.886024 9.01254 0.49491 7.7532 0.244263V5.94537C9.01191 6.17475 10.2618 6.54396 11.5015 6.96922V1.33319Z"
    fill="#E36E1B" />
  <path
    d="M7.75317 11.6459V5.94475C6.48435 5.71408 5.20603 5.6258 3.9176 5.76756V11.535C5.20603 11.3714 6.48435 11.4371 7.75317 11.6459Z"
    fill="#E36E1B" />
  <path
    d="M-0.00878906 12.3591V18.1949C1.31 17.4507 2.61868 17.4907 3.91723 17.3025V11.535C2.57187 11.6459 1.31 11.6375 -0.00878906 12.3591Z"
    fill="#E36E1B" />
  <path
    d="M7.7532 11.6458V17.3469C9.01191 17.5324 10.2618 17.8585 11.5015 18.2412V12.6052C10.2618 12.2012 9.01254 11.8532 7.7532 11.6458Z"
    fill="#E36E1B" />
  <path
    d="M3.9176 17.3024V23.0699C5.20603 22.8611 6.48435 22.883 7.75317 23.0473V17.3462C6.48435 17.1593 5.20603 17.1155 3.9176 17.3017V17.3024Z"
    fill="#E36E1B" />
  <path
    d="M28.91 14.8237C30.3705 13.6034 31.1915 11.642 31.1915 9.62521C31.1915 6.49888 29.2737 5.21858 25.2819 4.82231V2.0974C24.4331 2.05359 23.5792 1.95951 22.7209 1.82678V4.54718C21.9195 4.42991 21.1143 4.27913 20.3047 4.10258V1.36092C19.428 1.16247 18.5469 0.93437 17.6608 0.688232C17.6608 1.60964 17.6608 2.53104 17.6608 3.45244C16.8334 3.2295 16.0017 2.99045 15.1655 2.74496V8.3172C13.9536 7.8681 12.7322 7.39129 11.502 6.96924V12.6053C12.7322 13.0061 13.9536 13.4616 15.1655 13.8894V19.4617C13.9536 19.0551 12.7322 18.6202 11.502 18.2407V23.8767C12.7322 24.2349 13.9536 24.648 15.1655 25.0339C16.0017 25.2214 16.8334 25.4031 17.6608 25.5681C17.6608 26.4895 17.6608 27.4109 17.6608 28.3323C18.5469 28.5017 19.4287 28.6532 20.3047 28.7756V26.0339C21.1143 26.1538 21.9195 26.2491 22.7209 26.3104V29.0307C23.5792 29.0894 24.4331 29.1087 25.2819 29.0791V26.3767C29.7083 26.1338 32.0087 22.6305 32.0087 19.1356C32.0087 16.557 30.8297 15.3057 28.91 14.8224V14.8237ZM20.3123 8.58396C21.1194 8.74826 21.922 8.8868 22.7203 8.99247C23.077 9.0395 23.4331 9.0801 23.7879 9.11296C23.8563 9.1194 23.922 9.12649 23.9872 9.13486C24.0036 9.1368 24.0194 9.13873 24.0359 9.14066C24.0966 9.1484 24.1561 9.15677 24.2143 9.16579C24.2181 9.16579 24.2225 9.16708 24.2263 9.16773C24.2902 9.17804 24.3515 9.18899 24.4122 9.20123C24.423 9.20316 24.4331 9.20574 24.4439 9.20767C24.5014 9.21927 24.5583 9.23216 24.6134 9.24569C24.6153 9.24569 24.6178 9.24634 24.6197 9.24698C24.6798 9.2618 24.7386 9.27791 24.7955 9.29466C24.7993 9.29595 24.8031 9.29724 24.8069 9.29788C24.9802 9.35007 25.139 9.41257 25.2819 9.48538C25.9543 9.8256 26.2959 10.4087 26.2959 11.2689C26.2959 12.1452 25.9543 12.7689 25.2819 13.0853C25.1384 13.1523 24.9796 13.2052 24.8063 13.2425C24.8025 13.2432 24.7993 13.2445 24.7955 13.2451C24.7386 13.2573 24.6798 13.2677 24.6197 13.2767C24.6178 13.2767 24.6153 13.2767 24.6134 13.2773C24.5583 13.285 24.5014 13.2915 24.4439 13.2966C24.4331 13.2973 24.423 13.2986 24.4122 13.2992C24.3515 13.3037 24.2902 13.3076 24.2263 13.3089C24.2225 13.3089 24.2181 13.3089 24.2143 13.3089C24.1561 13.3102 24.0966 13.3095 24.0365 13.3089C24.0201 13.3089 24.0043 13.3082 23.9878 13.3076C23.9227 13.305 23.8563 13.3018 23.7886 13.2966C23.4337 13.2683 23.0776 13.2329 22.7209 13.191C21.922 13.0963 21.1194 12.968 20.3129 12.8147V8.58524L20.3123 8.58396ZM25.2813 21.9205C25.2294 21.9289 25.1769 21.9359 25.1232 21.9424C25.1074 21.9443 25.0916 21.9456 25.0757 21.9475C25.0365 21.9514 24.9967 21.9553 24.9562 21.9585C24.9372 21.9598 24.9189 21.9611 24.8999 21.9624C24.8594 21.9649 24.8183 21.9662 24.7772 21.9675C24.7595 21.9675 24.7418 21.9688 24.7241 21.9688C24.6652 21.9701 24.6058 21.9701 24.5444 21.9688C23.9385 21.9566 23.3306 21.9205 22.7203 21.8651C21.9214 21.7922 21.1187 21.6866 20.3123 21.5551V17.106C21.1194 17.2484 21.922 17.3656 22.7203 17.4494C23.3306 17.5132 23.9385 17.5577 24.5444 17.5789C24.6052 17.5809 24.6652 17.5841 24.7241 17.5873C24.7418 17.5886 24.7595 17.5899 24.7772 17.5905C24.8183 17.5931 24.8594 17.5963 24.8999 17.5995C24.9189 17.6008 24.9379 17.6028 24.9568 17.6047C24.9973 17.6086 25.0372 17.6124 25.0764 17.6169C25.0922 17.6189 25.108 17.6202 25.1238 17.6221C25.1776 17.6285 25.2307 17.6356 25.2819 17.644C26.5027 17.8283 27.1396 18.4404 27.1396 19.6885C27.1396 20.9256 26.5027 21.7136 25.2819 21.9192L25.2813 21.9205Z"
    fill="#E36E1B" />
</svg>