<svg xmlns="http://www.w3.org/2000/svg" width="32" height="32" viewBox="0 0 32 32" fill="none">
<circle cx="16" cy="16" r="16" fill="#4C67EF"/>
<path d="M24.6872 8.0303L24.6866 4.5625L22.3431 7.12367C22.3154 7.15394 21.2084 8.36323 19.7993 9.9041C19.7103 9.50997 19.5822 9.12122 19.415 8.74324C18.7375 7.20976 17.5017 6.03141 15.9355 5.42542C14.3693 4.81942 12.6603 4.85776 11.1231 5.53437C9.58592 6.21031 8.40472 7.44315 7.79727 9.00554C7.4359 9.93437 7.38399 10.8376 7.38129 11.599C7.3732 13.6349 7.37522 23.8668 7.37522 23.9697L7.3759 27.4375L9.71941 24.8763C9.74705 24.8461 10.8541 23.6368 12.2632 22.0959C12.3521 22.49 12.4802 22.8788 12.6474 23.2568C13.325 24.7902 14.5615 25.9686 16.1276 26.5746C16.8659 26.8604 17.6351 27.003 18.4044 27.0023C19.2667 27.0023 20.1277 26.8228 20.9401 26.4656C22.4772 25.7897 23.6584 24.5569 24.2659 22.9945C24.6272 22.0656 24.6785 21.1617 24.6819 20.4003C24.6893 18.3651 24.6872 8.13321 24.6872 8.0303ZM10.0781 11.6091C10.0801 11.0683 10.1098 10.4966 10.3114 9.97809C10.6586 9.08558 11.3328 8.38139 12.2106 7.99533C12.6751 7.79087 13.1666 7.68864 13.6587 7.68864C14.0976 7.68864 14.5372 7.77002 14.9593 7.93345C15.8539 8.27983 16.5598 8.95241 16.9468 9.82877C17.3338 10.7045 17.356 11.6784 17.0088 12.5709C16.8052 13.0941 16.425 13.5522 16.0798 13.9308C15.2579 14.8327 12.2429 18.1277 10.0713 20.5019C10.072 17.3051 10.0734 12.8722 10.0781 11.6091ZM21.9844 20.3909C21.9824 20.9317 21.9527 21.5034 21.7511 22.0219C21.4039 22.9144 20.7297 23.6186 19.8519 24.0047C18.9741 24.3907 17.9979 24.4129 17.1032 24.0665C16.2085 23.7202 15.5027 23.0476 15.1157 22.1712C14.7287 21.2955 14.7064 20.3216 15.0537 19.4291C15.2573 18.9059 15.6375 18.4478 15.9827 18.0692C16.8045 17.1673 19.8195 13.8723 21.9911 11.4981C21.9905 14.6949 21.9898 19.1278 21.9844 20.3909Z" fill="white"/>
</svg>